<?xml version="1.0" encoding="utf-8"?>
<svg version="1.1" id="图层_1" xmlns="http://www.w3.org/2000/svg" xmlns:xlink="http://www.w3.org/1999/xlink" x="0px" y="0px"
	 viewBox="0 0 35.2 32" style="enable-background:new 0 0 35.2 32;" xml:space="preserve">
<style type="text/css">
	.st0{fill:#FFFFFF;}
</style>
<path class="st0" d="M30.1,0H5.1C2.9,0,1,1.9,1,4.2v23.7C1,30.1,2.9,32,5.1,32h24.9c2.3,0,4.2-1.9,4.2-4.2V4.2
	C34.2,1.9,32.4,0,30.1,0z M3.8,27.8V4.2c0-0.8,0.6-1.4,1.4-1.4h11.1v26.4l-11.1,0C4.4,29.2,3.8,28.6,3.8,27.8z M31.5,27.8
	c0,0.8-0.6,1.4-1.4,1.4H19V2.8h11.1c0.8,0,1.4,0.6,1.4,1.4L31.5,27.8L31.5,27.8z"/>
<path class="st0" d="M6.5,9.7h6.9v1.4H6.5V9.7z"/>
<path class="st0" d="M6.5,15.3h6.9v1.4H6.5C6.5,16.7,6.5,15.3,6.5,15.3z"/>
<path class="st0" d="M6.5,20.9h6.9v1.4H6.5V20.9z"/>
<path class="st0" d="M21.8,9.7h6.9v1.4h-6.9V9.7z"/>
<path class="st0" d="M21.8,15.3h6.9v1.4h-6.9C21.8,16.7,21.8,15.3,21.8,15.3z"/>
<path class="st0" d="M21.8,20.9h6.9v1.4h-6.9V20.9z"/>
</svg>
