<?xml version="1.0" encoding="utf-8"?>
<!-- Generator: Adobe Illustrator 21.0.0, SVG Export Plug-In . SVG Version: 6.00 Build 0)  -->
<svg version="1.1" xmlns="http://www.w3.org/2000/svg" xmlns:xlink="http://www.w3.org/1999/xlink" x="0px" y="0px"
	 viewBox="0 0 20 20" style="enable-background:new 0 0 20 20;" xml:space="preserve">
<style type="text/css">
	.st0{fill:#FFFFFF;}
</style>
<g id="图层_2">
	<path class="st0" d="M13,9.1c0.5,0.3,0.6,0.9,0.3,1.4c-0.1,0.1-0.2,0.3-0.3,0.3l-5,3c-0.5,0.3-1.1,0.1-1.4-0.4
		c-0.1-0.2-0.1-0.3-0.1-0.5V7c0-0.6,0.4-1,1-1C7.7,6,7.9,6,8,6.1L13,9.1z M8.5,8.8v2.5l2.1-1.2L8.5,8.8z"/>
	<path class="st0" d="M18,16V4H2v12H18z M18.6,18H1.4C0.6,18,0,17.3,0,16.4V3.6C0,2.7,0.6,2,1.4,2h17.1C19.4,2,20,2.7,20,3.6v12.8
		C20,17.3,19.4,18,18.6,18z"/>
	<path class="st0" d="M3.4,4.1c0-0.4,0.4-0.7,1-0.7s1,0.3,1,0.7v11.7c0,0.4-0.4,0.7-1,0.7s-1-0.3-1-0.7V4.1z"/>
	<path class="st0" d="M14.6,4.1c0-0.4,0.4-0.7,1-0.7c0.6,0,1,0.3,1,0.7v11.7c0,0.4-0.4,0.7-1,0.7c-0.6,0-1-0.3-1-0.7V4.1z"/>
	<path class="st0" d="M18.8,6.5c0.4,0,0.8,0.4,0.8,1s-0.3,1-0.8,1h-3c-0.4,0-0.8-0.4-0.8-1s0.3-1,0.8-1H18.8z"/>
	<path class="st0" d="M18.8,11.8c0.4,0,0.8,0.4,0.8,1s-0.3,1-0.8,1h-3c-0.4,0-0.8-0.4-0.8-1s0.3-1,0.8-1H18.8z"/>
	<path class="st0" d="M4.2,6.4c0.5,0,0.8,0.4,0.8,1s-0.4,1-0.8,1H0.8C0.4,8.4,0,7.9,0,7.4s0.4-1,0.8-1H4.2z"/>
	<path class="st0" d="M4.2,11.6c0.5,0,0.8,0.4,0.8,1s-0.4,1-0.8,1H0.8c-0.5,0-0.8-0.4-0.8-1s0.4-1,0.8-1H4.2z"/>
</g>
<g id="图层_1">
</g>
</svg>
