<?xml version="1.0" encoding="utf-8"?>
<!-- Generator: Adobe Illustrator 21.0.0, SVG Export Plug-In . SVG Version: 6.00 Build 0)  -->
<svg version="1.1" id="Layer_1" xmlns="http://www.w3.org/2000/svg" xmlns:xlink="http://www.w3.org/1999/xlink" x="0px" y="0px"
	 viewBox="0 0 32 32" style="enable-background:new 0 0 32 32;" xml:space="preserve">
<style type="text/css">
	.st0{fill:#00659B;}
	.st1{fill:#FFFFFF;}
</style>
<g>
	<circle class="st0" cx="16" cy="16" r="16"/>
	<g>
		<path class="st1" d="M23.8,20.5c0,0.1-0.1,0.1-0.2,0.1c-1.3,0-2.6,0-3.9,0c0,0,0,0-0.1,0c0,0,0,0,0-0.1c0-0.3,0-0.6,0-0.9
			c0-0.2,0.1-0.2,0.2-0.2c0.8,0,1.5,0,2.3,0c0,0,0.1,0,0.1,0c0-0.2,0-0.4,0-0.7c-0.9,0-1.7,0-2.6,0c0,0,0-0.1,0-0.1c0-1.7,0-3.4,0-5
			c0-0.2,0-0.2,0.2-0.2c1.3,0,2.6,0,3.9,0C23.8,15.8,23.8,18.1,23.8,20.5z M21.1,17.6C21.2,17.6,21.2,17.6,21.1,17.6
			c0.3,0,0.6,0,0.9,0c0.2,0,0.2-0.1,0.2-0.2c0-0.9,0-1.8,0-2.7c0,0,0,0,0-0.1c-0.3,0-0.6,0-0.9,0c-0.1,0-0.1,0-0.2,0.1
			c0,0,0,0.1,0,0.1c0,0.7,0,1.5,0,2.2C21.1,17.2,21.1,17.4,21.1,17.6z"/>
		<path class="st1" d="M8.2,13.5c0-0.1,0.1-0.1,0.2-0.1c0.8,0,1.5,0,2.3,0c0,0,0.1,0,0.1,0c0,0,0-0.1,0-0.1c0-0.6,0-1.1,0-1.7
			c0-0.2,0.1-0.2,0.2-0.2c0.4,0,0.8,0,1.2,0c0,0,0.1,0,0.1,0c0,0,0,0.1,0,0.1c0,2.3,0,4.7,0,7c0,0,0,0.1,0,0.1
			c0,0.1-0.1,0.1-0.1,0.1c0,0-0.1,0-0.1,0c-1.3,0-2.6,0-3.9,0C8.2,17,8.2,15.3,8.2,13.5z M9.7,17.6C9.8,17.6,9.8,17.6,9.7,17.6
			c0.3,0,0.6,0,0.9,0c0.2,0,0.2-0.1,0.2-0.2c0-0.9,0-1.8,0-2.7c0,0,0,0,0-0.1c-0.3,0-0.6,0-1,0c-0.1,0-0.1,0-0.2,0.1
			c0,0,0,0.1,0,0.1c0,0.8,0,1.7,0,2.5C9.7,17.4,9.7,17.5,9.7,17.6z"/>
		<path class="st1" d="M19.1,13.4C19.1,13.4,19.1,13.5,19.1,13.4c0,2.4,0,4.7,0,6.9c0,0.2,0,0.2-0.2,0.2c-1.3,0-2.6,0-3.9,0
			c0,0,0,0-0.1,0c0-0.1,0-0.2,0-0.3c0-0.2,0-0.4,0-0.6c0-0.2,0.1-0.2,0.2-0.2c0.8,0,1.5,0,2.3,0c0,0,0.1,0,0.1,0c0-0.2,0-0.4,0-0.7
			c-0.9,0-1.7,0-2.6,0c0,0,0-0.1,0-0.1c0-1.7,0-3.4,0-5c0-0.2,0-0.2,0.2-0.2C16.4,13.4,17.7,13.4,19.1,13.4
			C19,13.4,19.1,13.4,19.1,13.4z M16.4,17.6c0.3,0,0.6,0,0.9,0c0.1,0,0.1,0,0.1-0.1c0,0,0-0.1,0-0.1c0-0.9,0-1.8,0-2.7
			c0,0,0,0,0-0.1c-0.3,0-0.6,0-0.9,0c-0.1,0-0.1,0-0.1,0.1c0,0,0,0.1,0,0.1C16.4,15.7,16.4,16.6,16.4,17.6
			C16.4,17.5,16.4,17.6,16.4,17.6z"/>
		<path class="st1" d="M14.4,13.4C14.4,13.4,14.4,13.5,14.4,13.4c0,1.8,0,3.4,0,5.1c0,0,0,0.1,0,0.1c0,0.1-0.1,0.1-0.1,0.1
			c-0.5,0-0.9,0-1.4,0c0,0,0-0.1,0-0.1c0-1.7,0-3.4,0-5c0-0.2,0-0.2,0.2-0.2C13.5,13.4,13.9,13.4,14.4,13.4
			C14.3,13.4,14.4,13.4,14.4,13.4z"/>
		<path class="st1" d="M14.4,11.4c0,0.3,0,0.7,0,1c0,0.1-0.1,0.2-0.2,0.2c-0.4,0-0.9,0-1.3,0c0,0,0,0,0,0c0,0,0,0,0,0
			c0-0.3,0-0.6,0-1c0-0.1,0.1-0.2,0.2-0.2C13.5,11.4,13.9,11.4,14.4,11.4C14.4,11.4,14.4,11.4,14.4,11.4z"/>
	</g>
</g>
</svg>
