<?xml version="1.0" encoding="utf-8"?>
<!-- Generator: Adobe Illustrator 21.0.0, SVG Export Plug-In . SVG Version: 6.00 Build 0)  -->
<svg version="1.1" id="图层_1" xmlns="http://www.w3.org/2000/svg" xmlns:xlink="http://www.w3.org/1999/xlink" x="0px" y="0px"
	 viewBox="0 0 32 32" style="enable-background:new 0 0 32 32;" xml:space="preserve">
<style type="text/css">
	.st0{fill:#FFFFFF;}
	.st1{fill:#DC4E41;}
</style>
<ellipse class="st0" cx="16.4" cy="16.1" rx="14.1" ry="13.1"/>
<path class="st1" d="M16,32C7.2,32,0,24.8,0,16C0,9.6,3.9,3.8,9.8,1.3c8.1-3.4,17.5,0.4,21,8.5c2.5,6,1.2,12.9-3.4,17.5
	C24.3,30.3,20.3,32,16,32z M13.1,8.1c-0.2,0-0.4,0-0.6,0c-2.2,0.1-4.2,1-5.7,2.6c-1.5,1.6-2.4,3.7-2.3,5.8c0,3.6,2.3,6.8,5.7,8
	c0.9,0.3,1.8,0.5,2.8,0.5h0c2.4,0.1,4.7-1,6.3-2.9c1.4-2,2-4.4,1.7-6.7c-1.3,0-2.7,0-4.5,0c-1.2,0-2.6,0-3.6,0v2.9
	c0.9,0,1.9,0,2.8,0c0.7,0,1.4,0,2,0c-0.3,1.4-1.4,2.6-2.7,3.2c-0.6,0.3-1.3,0.4-2,0.4c-1.1,0-2.2-0.4-3.1-1c-0.9-0.6-1.6-1.6-2-2.6
	c-1-2.8,0.5-5.8,3.3-6.8c0,0,0.1,0,0.1,0c0.4-0.2,0.9-0.2,1.4-0.2c1.3,0.1,2.5,0.5,3.6,1.2c0.6-0.6,1.3-1.3,2.1-2.2
	C17.1,8.9,15.1,8.2,13.1,8.1z M25.9,20.3h0.8c0-0.4,0-0.8,0-1.2v-0.3c0-0.3,0-0.6,0-0.9c0.4,0,0.8,0,1.3,0l1.2,0v-2.4l-2.4,0
	c0-0.4,0-0.8,0-1.3l0-1.1h-2.4c0,0.8,0,1.6,0,2.4v0c-0.5,0-1.1,0-1.6,0h-0.8v2.4l1.2,0l1.2,0c0,0.5,0,1.1,0,1.6v0.8L25.9,20.3
	L25.9,20.3z"/>
</svg>
