<?xml version="1.0" standalone="no"?><!DOCTYPE svg PUBLIC "-//W3C//DTD SVG 1.1//EN" "http://www.w3.org/Graphics/SVG/1.1/DTD/svg11.dtd"><svg t="1568173495459" class="icon" viewBox="0 0 1024 1024" version="1.1" xmlns="http://www.w3.org/2000/svg" p-id="1065" xmlns:xlink="http://www.w3.org/1999/xlink" width="32" height="32"><defs><style type="text/css"></style></defs><path d="M517.20192 519.61856m-491.52 0a491.52 491.52 0 1 0 983.04 0 491.52 491.52 0 1 0-983.04 0Z" fill="#3072F3" p-id="1066"></path><path d="M517.20192 765.37856c-33.46432-0.08192-60.6208-26.37824-60.70272-58.85952 0-32.31744 27.32032-58.7776 60.70272-58.7776s60.66176 26.46016 60.66176 58.7776c0 32.39936-27.27936 58.85952-60.66176 58.85952m78.88896-444.17024s0 2.90816 0 0c0 2.90816-51.6096 235.3152-51.6096 235.3152s3.03104-17.65376 0 0-12.0832 26.46016-27.27936 26.46016c-15.1552 0-24.24832-11.75552-27.27936-29.40928-6.144-17.65376-51.6096-226.5088-51.6096-226.5088 0-5.85728-3.03104-11.79648-3.03104-14.7456C435.28192 268.20608 471.73632 232.89856 517.20192 232.89856c45.4656 0 81.92 35.30752 81.92 79.4624 0 0-3.03104 5.89824-3.03104 8.84736" fill="#FFFFFF" p-id="1067"></path></svg>