<svg id="图层_1" data-name="图层 1" xmlns="http://www.w3.org/2000/svg" viewBox="0 0 200 200"><defs><style>.cls-1{fill:#5da7cf;}.cls-2{fill:#fff;}.cls-3{fill:none;stroke:#fff;stroke-miterlimit:10;stroke-width:8px;}</style></defs><title>画板 1</title><circle class="cls-1" cx="101.17" cy="107.5" r="90"/><path class="cls-2" d="M132.93,118.57H69.4a3.1,3.1,0,0,1-3.1-3.1V70.92a3.1,3.1,0,0,1,3.1-3.1h63.53a3.1,3.1,0,0,1,3.1,3.1v44.55A3.1,3.1,0,0,1,132.93,118.57Zm-60.43-6.2h57.33V74H72.5Z"/><path class="cls-2" d="M87.77,96.73A8.93,8.93,0,1,1,96.7,87.8,8.93,8.93,0,0,1,87.77,96.73Zm0-11.66A2.73,2.73,0,1,0,90.5,87.8,2.73,2.73,0,0,0,87.77,85.07Z"/><path class="cls-2" d="M132.93,108.27a3.1,3.1,0,0,1-2.76-1.69,26.59,26.59,0,0,0-4.75-6.09,18.92,18.92,0,0,0-13.33-5.75c-5,0-7.33,2.7-10.23,6.11s-6.3,7.41-12.72,7.41A30.13,30.13,0,0,1,67,98.47l4.78-4h0a22.15,22.15,0,0,0,4.65,3.85,23.48,23.48,0,0,0,12.7,3.72c3.38,0,5.16-1.89,8-5.23,3.14-3.7,7.05-8.3,15-8.3a25.31,25.31,0,0,1,17.8,7.64,32.33,32.33,0,0,1,5.81,7.57,3.1,3.1,0,0,1-2.76,4.52Z"/><rect class="cls-3" x="54.5" y="55.72" width="93.33" height="103.56" rx="2" ry="2"/><rect class="cls-2" x="66.6" y="128.16" width="69.43" height="6.88" rx="3.25" ry="3.25"/><rect class="cls-2" x="66.6" y="139.51" width="69.43" height="6.88" rx="3.25" ry="3.25"/></svg>