<?xml version="1.0" standalone="no"?><!DOCTYPE svg PUBLIC "-//W3C//DTD SVG 1.1//EN" "http://www.w3.org/Graphics/SVG/1.1/DTD/svg11.dtd"><svg t="1571303673779" class="icon" viewBox="0 0 1024 1024" version="1.1" xmlns="http://www.w3.org/2000/svg" p-id="12957" xmlns:xlink="http://www.w3.org/1999/xlink" width="32" height="32"><defs><style type="text/css"></style></defs><path d="M170.666382 213.332978h682.665529v639.998933H170.666382z" fill="#FFFFFF" p-id="12958"></path><path d="M512.895145 1023.998293c-207.402321 0.511999-394.367343-124.415793-473.72721-315.903473S3.285328 296.404839 149.75975 149.973083 516.948472-40.490599 708.009487 39.381268A512.21248 512.21248 0 0 1 1023.998293 512.980478C1023.998293 795.134675 795.604007 1023.486294 512.895145 1023.998293z m112.639812-738.857435l-15.871973 2.047997c-9.727984 2.047997-19.455968 5.119991-28.671952 8.703985a127.317121 127.317121 0 0 0-72.703879 86.527856c-5.119991 19.967967-5.119991 40.959932 0 60.415899-19.455968 0-38.911935-2.559996-57.343905-7.679987a376.746039 376.746039 0 0 1-156.714405-76.287873 236.159606 236.159606 0 0 1-37.930603-37.375937 104.490493 104.490493 0 0 1-11.775981-13.823977 143.231761 143.231761 0 0 0-13.823977 33.279944 133.375778 133.375778 0 0 0 28.671952 117.247805c6.655989 8.191986 16.895972 13.311978 23.551961 20.479966a33.83461 33.83461 0 0 1-17.407971-1.535998 126.037123 126.037123 0 0 1-27.135955-7.679987l-13.823977-5.119992a123.562461 123.562461 0 0 0 60.4159 110.591816c12.28798 9.215985 26.623956 14.847975 41.98393 16.895972-8.191986 7.167988-44.543926 4.095993-57.343905 2.559996 12.799979 38.911935 43.007928 69.119885 81.450531 82.431862 12.28798 4.607992 25.087958 6.655989 37.887937 6.655989a168.533052 168.533052 0 0 1-34.815942 22.527963 277.162205 277.162205 0 0 1-76.799872 28.159953c-11.77598 2.559996-24.06396 2.047997-37.375938 4.095993a183.039695 183.039695 0 0 1-40.959931-1.535998l11.263981 6.655989c11.77598 7.167988 23.551961 13.311978 36.351939 18.43197 24.575959 10.239983 49.663917 18.431969 75.263875 24.575959 60.415899 12.799979 123.434461 10.751982 182.826362-6.14399 134.186443-41.98393 219.178301-140.287766 251.476914-285.183525 5.119991-27.135955 7.167988-55.295908 6.14399-82.943862l20.479966-16.895971a214.826309 214.826309 0 0 0 43.519927-50.175917 255.572907 255.572907 0 0 1-72.703879 19.967967c5.119991-2.559996 9.727984-6.14399 14.335976-10.239983 19.455968-15.871974 33.791944-36.863939 41.471931-60.415899l-15.871973 8.703985a207.956987 207.956987 0 0 1-66.559889 22.015964 129.279785 129.279785 0 0 0-100.906499-40.447933v0.511999h-0.554666z" fill="#2FB0EC" p-id="12959"></path></svg>