<svg xmlns="http://www.w3.org/2000/svg" width="100" height="44" viewBox="0 0 100 44"><metadata><?xpacket begin="﻿" id="W5M0MpCehiHzreSzNTczkc9d"?><x:xmpmeta xmlns:x="adobe:ns:meta/" x:xmptk="Adobe XMP Core 5.6-c138 79.159824, 2016/09/14-01:09:01        "><rdf:RDF xmlns:rdf="http://www.w3.org/1999/02/22-rdf-syntax-ns#"><rdf:Description rdf:about=""/></rdf:RDF></x:xmpmeta><?xpacket end="w"?></metadata><defs><style>.cls-1 {fill: #f6f6f7;fill-rule: evenodd;opacity: 0.3;}</style></defs><path id="形状_1_拷贝" data-name="形状 1 拷贝" class="cls-1" d="M77.315,22.695c2.948,0,4.9,3.611,6.737,6.2C85.42,30.78,88,33.475,90.631,33.475a3.118,3.118,0,0,0,3.421-3.287A2.99,2.99,0,0,0,91.92,27.2a0.5,0.5,0,0,1-.29-0.728,2.455,2.455,0,0,1,2.4-1.778A3.2,3.2,0,0,1,97,28.085c0,2.426-2.1,4.744-3.053,5.715a7.988,7.988,0,0,0-1.368,1.617C90.789,38.543,85.841,40,82.262,40a18.264,18.264,0,0,1-10.789-3.343c-2.788-2.21-3.789-4.2-3.789-6.361a3.416,3.416,0,0,1,1.684-3.233c-1.79-2.831-3.947-6.172-8.21-6.172-4.316,0-5.973,2.856-5.973,6.036,0,5.095,4.263,7.736,6.21,7.736,0.474,0,.474.325,0.184,0.486a5.272,5.272,0,0,1-3.211,1.186c-3.211,0-6.367-3.18-6.367-7.25C52,23.179,57.685,19,62.422,19c3.105,0,5.525,1.457,8.052,4.96,1.632,2.264,3.947,6.658,7.368,9.461,3.158,2.533,5.895,3.126,7.683,3.126h1.052v-0.27c-3.894-.861-6-3.4-7.21-4.527a33.081,33.081,0,0,1-5.579-7.386,4.288,4.288,0,0,1,3.474-1.67h0.053Zm-52.63,0c-2.948,0-4.9,3.611-6.737,6.2C16.58,30.78,14,33.475,11.369,33.475a3.118,3.118,0,0,1-3.421-3.287A2.99,2.99,0,0,1,10.08,27.2a0.5,0.5,0,0,0,.29-0.728,2.455,2.455,0,0,0-2.4-1.778A3.2,3.2,0,0,0,5,28.085c0,2.426,2.1,4.744,3.052,5.715a7.988,7.988,0,0,1,1.368,1.617C11.211,38.543,16.159,40,19.738,40a18.264,18.264,0,0,0,10.789-3.343c2.788-2.21,3.789-4.2,3.789-6.361a3.416,3.416,0,0,0-1.684-3.233c1.79-2.831,3.947-6.172,8.21-6.172,4.316,0,5.973,2.856,5.973,6.036,0,5.095-4.263,7.736-6.21,7.736-0.474,0-.474.325-0.184,0.486a5.272,5.272,0,0,0,3.211,1.186c3.211,0,6.367-3.18,6.367-7.25C50,23.179,44.315,19,39.578,19c-3.105,0-5.525,1.457-8.052,4.96-1.632,2.264-3.948,6.658-7.368,9.461-3.158,2.533-5.895,3.126-7.684,3.126H15.422v-0.27c3.895-.861,6-3.4,7.21-4.527a33.081,33.081,0,0,0,5.579-7.386,4.288,4.288,0,0,0-3.473-1.67H24.685Z"/></svg>
