<?xml version="1.0" encoding="utf-8"?>
<!-- Generator: Adobe Illustrator 21.0.0, SVG Export Plug-In . SVG Version: 6.00 Build 0)  -->
<svg version="1.1" id="图层_1" xmlns="http://www.w3.org/2000/svg" xmlns:xlink="http://www.w3.org/1999/xlink" x="0px" y="0px"
	 viewBox="0 0 32 32" style="enable-background:new 0 0 32 32;" xml:space="preserve">
<style type="text/css">
	.st0{fill:#BB262C;}
	.st1{fill:#FFFFFF;}
</style>
<path class="st0" d="M4.7,27.3c6.2,6.2,16.4,6.2,22.6,0s6.2-16.4,0-22.6s-16.4-6.2-22.6,0S-1.6,21.1,4.7,27.3L4.7,27.3z"/>
<path class="st1" d="M14.2,16l0.8,0.7c0.5,0.4,1.3,0.4,1.9,0l0.8-0.7l0.9-0.8l5.8-4.7c-0.2-0.8-0.9-1.4-1.7-1.4H9.1
	c-0.8,0-1.5,0.6-1.7,1.4l5.8,4.7L14.2,16z M7.4,11.8v8l5-4L7.4,11.8z"/>
<path class="st1" d="M17.7,17.4C17.2,17.8,16.6,18,16,18s-1.2-0.2-1.7-0.6l-1-0.8l-5.9,4.8c0.1,0.4,0.3,0.8,0.6,1.1
	c0.1,0.1,0.3,0.2,0.5,0.3c0.2,0.1,0.4,0.1,0.7,0.1h13.7c0.3,0,0.6-0.1,0.8-0.2c0.2-0.1,0.3-0.2,0.5-0.4c0.2-0.3,0.4-0.6,0.4-1
	l-5.9-4.8L17.7,17.4z M19.7,15.8l5,4v-8L19.7,15.8z"/>
</svg>
