<?xml version="1.0" encoding="utf-8"?>
<!-- Generator: Adobe Illustrator 21.0.0, SVG Export Plug-In . SVG Version: 6.00 Build 0)  -->
<svg version="1.1" id="图层_1" xmlns="http://www.w3.org/2000/svg" xmlns:xlink="http://www.w3.org/1999/xlink" x="0px" y="0px"
	 viewBox="0 0 42 42" style="enable-background:new 0 0 42 42;" xml:space="preserve">
<style type="text/css">
	.st0{fill:url(#SVGID_1_);}
	.st1{fill:#FFFFFF;}
</style>
<linearGradient id="SVGID_1_" gradientUnits="userSpaceOnUse" x1="10.4982" y1="41.1896" x2="31.5018" y2="4.8104" gradientTransform="matrix(1 0 0 -1 0 44)">
	<stop  offset="0" style="stop-color:#4F5963"/>
	<stop  offset="1" style="stop-color:#38424C"/>
</linearGradient>
<circle class="st0" cx="21" cy="21" r="21"/>
<path class="st1" d="M18.6,19.8h-7.3c-0.7,0-1.2-0.5-1.2-1.2v-7.3c0-0.7,0.6-1.2,1.2-1.2h7.3c0.7,0,1.2,0.5,1.2,1.2v7.3
	C19.8,19.2,19.2,19.8,18.6,19.8z M12.4,17.3h4.9v-4.9h-4.9V17.3z M18.6,32h-7.3c-0.7,0-1.2-0.6-1.2-1.2v-7.3c0-0.7,0.6-1.2,1.2-1.2
	h7.3c0.7,0,1.2,0.6,1.2,1.2v7.3C19.8,31.4,19.2,32,18.6,32z M12.4,29.6h4.9v-4.9h-4.9V29.6z M30.8,19.8h-7.3c-0.7,0-1.2-0.5-1.2-1.2
	v-7.3c0-0.7,0.6-1.2,1.2-1.2h7.3c0.7,0,1.2,0.5,1.2,1.2v7.3C32,19.2,31.4,19.8,30.8,19.8z M24.7,17.3h4.9v-4.9h-4.9V17.3z M23.4,32
	c-0.7,0-1.2-0.6-1.2-1.2v-7.3c0-0.7,0.6-1.2,1.2-1.2h3.7c0.7,0,1.2,0.6,1.2,1.2v2.4h1.2v-2.4c0-0.7,0.5-1.2,1.2-1.2s1.2,0.6,1.2,1.2
	v3.7c0,0.7-0.6,1.2-1.2,1.2h-3.7c-0.7,0-1.2-0.6-1.2-1.2v-2.4h-1.2v6.1C24.7,31.4,24.1,32,23.4,32z"/>
<path class="st1" d="M30.8,32h-3.7c-0.7,0-1.2-0.6-1.2-1.2s0.5-1.2,1.2-1.2h3.7c0.7,0,1.2,0.5,1.2,1.2S31.4,32,30.8,32z"/>
</svg>
