<?xml version="1.0" encoding="utf-8"?>
<!-- Generator: Adobe Illustrator 21.0.0, SVG Export Plug-In . SVG Version: 6.00 Build 0)  -->
<svg version="1.1" id="图层_1" xmlns="http://www.w3.org/2000/svg" xmlns:xlink="http://www.w3.org/1999/xlink" x="0px" y="0px"
	 viewBox="0 0 32 32" style="enable-background:new 0 0 32 32;" xml:space="preserve">
<style type="text/css">
	.st0{fill:#FFFFFF;}
	.st1{fill:#FF4500;}
</style>
<circle class="st0" cx="17" cy="16" r="13.5"/>
<path class="st1" d="M16,32C7.2,32,0,24.8,0,16S7.2,0,16,0s16,7.2,16,16S24.8,32,16,32z M26.7,15.6c0-0.6-0.2-1.2-0.7-1.7
	c-0.4-0.5-1.1-0.7-1.7-0.7c-0.7,0-1.2,0.2-1.7,0.7c-1.7-1.2-3.8-1.8-6.2-1.9l1.2-5.6l4,0.9c0,0.5,0.2,0.9,0.5,1.2
	c0.3,0.3,0.8,0.5,1.2,0.5c0.5,0,0.9-0.2,1.3-0.5s0.5-0.8,0.5-1.3c0-0.5-0.2-0.9-0.5-1.3c-0.3-0.3-0.8-0.5-1.3-0.5
	c-0.7,0-1.2,0.3-1.6,1l-4.4-1c-0.2-0.1-0.4,0-0.5,0.3L15.6,12c-2.4,0.1-4.4,0.7-6.1,1.9c-0.5-0.5-1-0.7-1.7-0.7
	c-0.6,0-1.2,0.2-1.7,0.7c-0.5,0.5-0.7,1-0.7,1.7c0,0.5,0.1,0.9,0.4,1.3c0.2,0.4,0.6,0.7,1,0.9c-0.1,0.4-0.1,0.7-0.1,1.1
	c0,1.9,0.9,3.5,2.8,4.8c1.9,1.3,4.1,2,6.7,2c2.6,0,4.9-0.7,6.7-2c1.9-1.3,2.8-2.9,2.8-4.8c0-0.4,0-0.8-0.1-1.1
	c0.4-0.2,0.7-0.5,1-0.9C26.5,16.5,26.7,16,26.7,15.6L26.7,15.6L26.7,15.6z M19.9,21.5c0.2,0.2,0.2,0.4,0,0.6
	c-0.8,0.8-2.1,1.2-3.9,1.2c-1.8,0-3.1-0.4-3.9-1.2c-0.2-0.2-0.2-0.4,0-0.6c0.1-0.1,0.2-0.1,0.3-0.1c0.1,0,0.2,0,0.3,0.1
	c0.6,0.6,1.8,1,3.3,1c1.6,0,2.7-0.3,3.3-1c0.1-0.1,0.2-0.1,0.3-0.1C19.8,21.4,19.9,21.5,19.9,21.5C19.9,21.5,19.9,21.5,19.9,21.5z
	 M13.9,18c0,0.5-0.2,0.9-0.5,1.2c-0.3,0.3-0.8,0.5-1.2,0.5c-0.5,0-0.9-0.2-1.3-0.5c-0.3-0.3-0.5-0.8-0.5-1.2c0-0.5,0.2-0.9,0.5-1.3
	c0.3-0.3,0.8-0.5,1.3-0.5c0.5,0,0.9,0.2,1.2,0.5C13.7,17,13.9,17.5,13.9,18z M21.7,18c0,0.5-0.2,0.9-0.5,1.2
	c-0.3,0.3-0.8,0.5-1.3,0.5c-0.5,0-0.9-0.2-1.2-0.5c-0.3-0.3-0.5-0.8-0.5-1.2c0-0.5,0.2-0.9,0.5-1.3c0.3-0.4,0.8-0.5,1.2-0.5
	c0.5,0,0.9,0.2,1.3,0.5C21.5,17,21.7,17.4,21.7,18L21.7,18z"/>
</svg>
